<svg id="Layer_1" data-name="Layer 1" xmlns="http://www.w3.org/2000/svg" viewBox="0 0 257.23 89.11"><defs><style>.cls-1{fill:#6d5ab1;}.cls-2{font-size:51px;fill:#fff;font-family:Poppins-ExtraBold, Poppins;font-weight:800;}</style></defs><path class="cls-1" d="M312.23,354.5A11.53,11.53,0,0,0,321,342.78c0-8.57-6.45-13.41-16.93-13.41H279.26v11.37h22.4a4.65,4.65,0,0,1,2.4.67.1.1,0,0,1,.05,0,4,4,0,0,1,2.18,3.69,1.77,1.77,0,0,1,0,.24,1.69,1.69,0,0,1,0,.23,3.89,3.89,0,0,1-1.92,3.53h0a4.57,4.57,0,0,1-2.69.87h-22.4V360.1h14.36v0h8.28c.22,0,.43,0,.64,0,3.11.19,4.85,1.86,4.85,4.81a5.09,5.09,0,0,1-.53,2.42,3.34,3.34,0,0,1-.83,1l0,0a4.6,4.6,0,0,1-3.12,1.21H279.26V381h25.57c11.06,0,17.29-5.35,17.29-14.07A12.53,12.53,0,0,0,312.23,354.5Z" transform="translate(-231.39 -315.45)"/><path class="cls-1" d="M287.68,351.44a1.42,1.42,0,0,0-1.43-1.42H271.1a5,5,0,0,0-5,5h0a5,5,0,0,0,5,5h15.15a1.43,1.43,0,0,0,1.43-1.43Z" transform="translate(-231.39 -315.45)"/><rect class="cls-1" x="47.87" y="34.57" width="14.26" height="10.08"/><path class="cls-1" d="M293.52,380.49V386c0,4.8-3.19,8.68-7.13,8.68h0c-3.94,0-7.13-3.88-7.13-8.68v-7.74c0-4.8,3.19-8.68,7.13-8.68h0c3.94,0,7.13,3.88,7.13,8.68Z" transform="translate(-231.39 -315.45)"/><path class="cls-1" d="M293.52,326.38v5.49c0,4.8-3.19,8.68-7.13,8.68h0c-3.94,0-7.13-3.88-7.13-8.68v-7.74c0-4.8,3.19-8.68,7.13-8.68h0c3.94,0,7.13,3.88,7.13,8.68Z" transform="translate(-231.39 -315.45)"/><path class="cls-1" d="M307.53,364.73v.19a4.72,4.72,0,0,1-.67,2.41,5.09,5.09,0,0,0,.53-2.42c0-3-1.74-4.62-4.85-4.81h.35A4.63,4.63,0,0,1,307.53,364.73Z" transform="translate(-231.39 -315.45)"/><path class="cls-1" d="M266.44,366.19h0a4.86,4.86,0,0,1-6.45,4.6l-25.33-8.73a4.86,4.86,0,0,1-3.27-4.6v-5.55a4.85,4.85,0,0,1,3.27-4.59L260,338.55a4.86,4.86,0,0,1,6.45,4.59v.05a4.87,4.87,0,0,1-3.4,4.64l-7.11,2.23a4.86,4.86,0,0,0,0,9.28l7.09,2.21A4.87,4.87,0,0,1,266.44,366.19Z" transform="translate(-231.39 -315.45)"/><text class="cls-2" transform="translate(99.08 57.69)">itvent</text></svg>