<svg width="51" height="59" viewBox="0 0 51 59" fill="#beacff" xmlns="http://www.w3.org/2000/svg">
<path d="M44.2409 29.0793C46.0125 28.6055 47.5783 27.4764 48.6712 25.8848C49.7641 24.2932 50.3164 22.3376 50.2338 20.3518C50.2338 13.97 45.8263 10.3658 38.6649 10.3658H21.7113V18.8327H37.018C37.5962 18.8333 38.1632 19.0058 38.658 19.3316C38.6693 19.3284 38.681 19.3284 38.6922 19.3316C39.1541 19.5884 39.5395 19.9832 39.8033 20.4697C40.067 20.9563 40.1984 21.5146 40.1819 22.0794C40.1856 22.1389 40.1856 22.1986 40.1819 22.2581C40.1855 22.3152 40.1855 22.3724 40.1819 22.4294C40.2035 22.9562 40.0927 23.4794 39.8615 23.9427C39.6303 24.4059 39.2874 24.7916 38.8699 25.0581C38.3354 25.4803 37.6919 25.7071 37.0317 25.7059H21.725V33.2494H31.5377H37.1957C37.3461 33.2494 37.4895 33.2494 37.633 33.2494C39.7582 33.3909 40.9472 34.6345 40.9472 36.8313C40.9645 37.4553 40.8401 38.0743 40.5851 38.6334C40.4426 38.9197 40.2499 39.1727 40.0179 39.378C39.4362 39.9594 38.6751 40.2811 37.8859 40.2791H21.7113V48.813H39.1842C46.7419 48.813 50.9991 44.829 50.9991 38.3355C51.0277 36.1792 50.37 34.0788 49.1379 32.3912C47.9058 30.7037 46.1754 29.5334 44.2409 29.0793Z" fill="#beacff"/>
<path d="M27.465 26.8006C27.465 26.6611 27.4397 26.523 27.3905 26.3942C27.3413 26.2654 27.2692 26.1485 27.1784 26.0502C27.0876 25.9519 26.9798 25.8742 26.8613 25.8215C26.7427 25.7688 26.6158 25.7422 26.4878 25.7431H16.1353C15.2291 25.7431 14.3601 26.1354 13.7193 26.8337C13.0786 27.532 12.7186 28.479 12.7186 29.4665C12.7186 30.454 13.0786 31.401 13.7193 32.0993C14.3601 32.7976 15.2291 33.1898 16.1353 33.1898H26.4878C26.747 33.1898 26.9956 33.0776 27.1788 32.8779C27.3621 32.6782 27.465 32.4074 27.465 32.125V26.8006Z" fill="#beacff"/>
<path d="M31.4557 25.7432H21.7113V33.2494H31.4557V25.7432Z" fill="#beacff"/>
<path d="M31.4557 48.4332V52.5363C31.4557 56.1107 29.2759 59 26.5835 59C23.8912 59 21.7113 56.1107 21.7113 52.5363V46.7726C21.7113 43.1982 23.8912 40.3089 26.5835 40.3089C29.2759 40.3089 31.4557 43.1982 31.4557 46.7726V48.4332Z" fill="#beacff"/>
<path d="M31.4557 8.1392V12.2274C31.4557 15.8019 29.2759 18.6912 26.5835 18.6912C23.8912 18.6912 21.7113 15.8019 21.7113 12.2274V6.4637C21.7113 2.8893 23.8912 0 26.5835 0C29.2759 0 31.4557 2.8893 31.4557 6.4637V8.1392Z" fill="#beacff"/>
<path d="M41.0292 36.6972V36.8387C41.0275 37.4709 40.8693 38.0909 40.5714 38.6334C40.8265 38.0743 40.9509 37.4553 40.9336 36.8313C40.9336 34.5973 39.7446 33.3909 37.6194 33.2494H37.8586C38.2746 33.2484 38.6867 33.3369 39.0714 33.5097C39.456 33.6826 39.8056 33.9364 40.1001 34.2566C40.3947 34.5769 40.6283 34.9573 40.7877 35.3761C40.9472 35.7949 41.0292 36.2438 41.0292 36.6972Z" fill="#beacff"/>
<path d="M12.9962 37.4357C12.9967 38.0036 12.9284 38.5634 12.7969 39.0684C12.6655 39.5734 12.4747 40.0089 12.2405 40.3386C12.0065 40.6683 11.7358 40.8826 11.4513 40.9636C11.1667 41.0446 10.8764 40.9899 10.6047 40.8041L1.21247 34.4114C0.858004 34.1691 0.550626 33.7143 0.333237 33.1104C0.115993 32.5066 -0.00057564 31.7839 2.13749e-06 31.043V26.9789C-0.000286751 26.2391 0.116278 25.5175 0.333667 24.9149C0.551056 24.3123 0.858293 23.8589 1.21247 23.6178L10.6084 17.1958C10.8798 17.0103 11.1697 16.9555 11.454 17.0361C11.7383 17.1167 12.0088 17.3304 12.2428 17.6592C12.4768 17.9881 12.6676 18.4227 12.7994 18.9267C12.9311 19.4308 12.9999 19.9897 13 20.557V20.5936C12.9997 21.3509 12.8775 22.0884 12.6509 22.6993C12.4241 23.3102 12.1049 23.7627 11.7393 23.9913L9.10304 25.6242C8.736 25.85 8.41533 26.3015 8.18755 26.9127C7.95976 27.524 7.83698 28.263 7.83698 29.022C7.83698 29.7809 7.95976 30.5199 8.18755 31.1312C8.41533 31.7425 8.736 32.1939 9.10304 32.4197L11.7319 34.038C12.0982 34.2653 12.4182 34.7173 12.6455 35.3283C12.873 35.9392 12.9958 36.6775 12.9962 37.4357Z" fill="#beacff"/>
</svg>
